<mxfile host="65bd71144e">
    <diagram id="wTpOdN2PF1R05swAv0fY" name="Page-1">
        <mxGraphModel dx="899" dy="649" grid="1" gridSize="4" guides="1" tooltips="1" connect="1" arrows="1" fold="1" page="1" pageScale="1" pageWidth="1100" pageHeight="850" math="0" shadow="0">
            <root>
                <mxCell id="0"/>
                <mxCell id="1" parent="0"/>
                <mxCell id="31" value="" style="group" vertex="1" connectable="0" parent="1">
                    <mxGeometry x="5" y="284" width="540" height="292" as="geometry"/>
                </mxCell>
                <mxCell id="2" value="&lt;font style=&quot;font-size: 12px;&quot;&gt;Inicio&lt;/font&gt;" style="rounded=1;whiteSpace=wrap;html=1;" parent="31" vertex="1">
                    <mxGeometry y="146.06234251063765" width="66.70490139850887" height="27.70685999792435" as="geometry"/>
                </mxCell>
                <mxCell id="30" value="" style="group" vertex="1" connectable="0" parent="31">
                    <mxGeometry x="85.5870207791062" y="-9" width="457.41297922089393" height="291.9999999999999" as="geometry"/>
                </mxCell>
                <mxCell id="6" value="&lt;font style=&quot;font-size: 12px;&quot;&gt;¿Pedal conectado?&lt;/font&gt;" style="html=1;whiteSpace=wrap;aspect=fixed;shape=isoRectangle;fontSize=14;" parent="30" vertex="1">
                    <mxGeometry x="21.10496713283629" y="137.00121647466972" width="101.21835947840502" height="60.73714688168093" as="geometry"/>
                </mxCell>
                <mxCell id="9" value="&lt;font style=&quot;font-size: 12px;&quot;&gt;Solicitar datos de Calibración&lt;/font&gt;" style="whiteSpace=wrap;html=1;fontSize=14;fillColor=#60a917;fontColor=#ffffff;strokeColor=#2D7600;" parent="30" vertex="1">
                    <mxGeometry x="195.43344950809552" y="94.5929517116636" width="95.2927162835841" height="51.95036249610817" as="geometry"/>
                </mxCell>
                <mxCell id="17" style="edgeStyle=none;html=1;fontSize=12;" parent="30" source="11" edge="1">
                    <mxGeometry relative="1" as="geometry">
                        <mxPoint y="163.85577250959983" as="targetPoint"/>
                        <Array as="points">
                            <mxPoint y="25.321472519978062"/>
                        </Array>
                    </mxGeometry>
                </mxCell>
                <mxCell id="11" value="&lt;font style=&quot;font-size: 12px;&quot;&gt;Establecer conexión con pedal&lt;/font&gt;" style="whiteSpace=wrap;html=1;fontSize=14;fillColor=#0050ef;fontColor=#ffffff;strokeColor=#001DBC;" parent="30" vertex="1">
                    <mxGeometry x="27.027396655931533" width="95.2927162835841" height="51.95036249610817" as="geometry"/>
                </mxCell>
                <mxCell id="12" value="" style="edgeStyle=none;html=1;fontSize=12;" parent="30" source="6" target="11" edge="1">
                    <mxGeometry relative="1" as="geometry"/>
                </mxCell>
                <mxCell id="13" value="NO" style="edgeLabel;html=1;align=center;verticalAlign=middle;resizable=0;points=[];fontSize=12;" parent="12" vertex="1" connectable="0">
                    <mxGeometry x="-0.2078" y="-1" relative="1" as="geometry">
                        <mxPoint as="offset"/>
                    </mxGeometry>
                </mxCell>
                <mxCell id="18" value="&lt;font style=&quot;font-size: 12px;&quot;&gt;Solicitar datos de Juego&lt;/font&gt;" style="whiteSpace=wrap;html=1;fontSize=14;fillColor=#76608a;fontColor=#ffffff;strokeColor=#432D57;" parent="30" vertex="1">
                    <mxGeometry x="195.43344950809552" y="177.71353170543665" width="95.2927162835841" height="51.95036249610817" as="geometry"/>
                </mxCell>
                <mxCell id="19" value="" style="endArrow=classic;startArrow=classic;html=1;fontSize=12;entryX=0;entryY=0.5;entryDx=0;entryDy=0;exitX=0;exitY=0.5;exitDx=0;exitDy=0;" parent="30" source="9" target="18" edge="1">
                    <mxGeometry width="50" height="50" relative="1" as="geometry">
                        <mxPoint x="168.35046543433188" y="130.95387626206465" as="sourcePoint"/>
                        <mxPoint x="208.05576388582526" y="87.66190751530786" as="targetPoint"/>
                        <Array as="points">
                            <mxPoint x="171.52688931045137" y="120.56380376284301"/>
                            <mxPoint x="171.52688931045137" y="167.31913000934037"/>
                            <mxPoint x="171.52688931045137" y="203.68438375661609"/>
                        </Array>
                    </mxGeometry>
                </mxCell>
                <mxCell id="20" value="" style="endArrow=none;html=1;fontSize=12;exitX=1.012;exitY=0.51;exitDx=0;exitDy=0;exitPerimeter=0;" parent="30" source="6" edge="1">
                    <mxGeometry width="50" height="50" relative="1" as="geometry">
                        <mxPoint x="123.88053116865929" y="203.68438375661609" as="sourcePoint"/>
                        <mxPoint x="171.41297922089382" y="168" as="targetPoint"/>
                    </mxGeometry>
                </mxCell>
                <mxCell id="22" value="SI" style="edgeLabel;html=1;align=center;verticalAlign=middle;resizable=0;points=[];fontSize=12;" parent="20" vertex="1" connectable="0">
                    <mxGeometry x="-0.3622" y="-1" relative="1" as="geometry">
                        <mxPoint as="offset"/>
                    </mxGeometry>
                </mxCell>
                <mxCell id="26" style="edgeStyle=none;html=1;exitX=0.5;exitY=0;exitDx=0;exitDy=0;entryX=1;entryY=0.5;entryDx=0;entryDy=0;fontSize=12;" parent="30" source="23" target="11" edge="1">
                    <mxGeometry relative="1" as="geometry">
                        <Array as="points">
                            <mxPoint x="409.75868001941154" y="26.187311894913194"/>
                        </Array>
                    </mxGeometry>
                </mxCell>
                <mxCell id="27" value="SI" style="edgeLabel;html=1;align=center;verticalAlign=middle;resizable=0;points=[];fontSize=12;" parent="26" vertex="1" connectable="0">
                    <mxGeometry x="0.1728" relative="1" as="geometry">
                        <mxPoint x="-1" as="offset"/>
                    </mxGeometry>
                </mxCell>
                <mxCell id="28" style="edgeStyle=none;html=1;exitX=0.5;exitY=1;exitDx=0;exitDy=0;fontSize=12;" parent="30" source="23" edge="1">
                    <mxGeometry relative="1" as="geometry">
                        <mxPoint x="142.9390744253761" y="174.24584500882142" as="targetPoint"/>
                        <Array as="points">
                            <mxPoint x="409.75868001941154" y="291.9999999999999"/>
                            <mxPoint x="142.9390744253761" y="291.9999999999999"/>
                        </Array>
                    </mxGeometry>
                </mxCell>
                <mxCell id="29" value="NO" style="edgeLabel;html=1;align=center;verticalAlign=middle;resizable=0;points=[];fontSize=12;" parent="28" vertex="1" connectable="0">
                    <mxGeometry x="-0.0098" y="1" relative="1" as="geometry">
                        <mxPoint as="offset"/>
                    </mxGeometry>
                </mxCell>
                <mxCell id="23" value="&lt;font style=&quot;font-size: 11px;&quot;&gt;¿Error de comunicación?&lt;/font&gt;" style="rhombus;whiteSpace=wrap;html=1;fontSize=14;" parent="30" vertex="1">
                    <mxGeometry x="362.12026293730986" y="139.61227001141603" width="95.2927162835841" height="69.2671499948109" as="geometry"/>
                </mxCell>
                <mxCell id="24" value="" style="edgeStyle=none;html=1;fontSize=12;entryX=0;entryY=0.5;entryDx=0;entryDy=0;" parent="30" source="9" target="23" edge="1">
                    <mxGeometry relative="1" as="geometry"/>
                </mxCell>
                <mxCell id="25" style="edgeStyle=none;html=1;exitX=1;exitY=0.5;exitDx=0;exitDy=0;entryX=0;entryY=0.5;entryDx=0;entryDy=0;fontSize=12;" parent="30" source="18" target="23" edge="1">
                    <mxGeometry relative="1" as="geometry"/>
                </mxCell>
                <mxCell id="4" style="edgeStyle=none;html=1;exitX=1;exitY=0.5;exitDx=0;exitDy=0;fontSize=14;entryX=-0.016;entryY=0.503;entryDx=0;entryDy=0;entryPerimeter=0;" parent="31" source="2" target="6" edge="1">
                    <mxGeometry relative="1" as="geometry">
                        <mxPoint x="-12.705695504477877" y="9.082655043069584" as="targetPoint"/>
                    </mxGeometry>
                </mxCell>
                <mxCell id="56" value="" style="group" vertex="1" connectable="0" parent="1">
                    <mxGeometry x="531" y="224" width="184" height="351" as="geometry"/>
                </mxCell>
                <mxCell id="36" value="" style="endArrow=none;html=1;fillColor=#0050ef;strokeColor=#001DBC;" edge="1" parent="56">
                    <mxGeometry width="50" height="50" relative="1" as="geometry">
                        <mxPoint x="27" y="351" as="sourcePoint"/>
                        <mxPoint x="27" y="27" as="targetPoint"/>
                    </mxGeometry>
                </mxCell>
                <mxCell id="40" value="T1" style="edgeLabel;html=1;align=center;verticalAlign=middle;resizable=0;points=[];fontSize=11;" vertex="1" connectable="0" parent="36">
                    <mxGeometry x="0.8434" y="1" relative="1" as="geometry">
                        <mxPoint y="-4" as="offset"/>
                    </mxGeometry>
                </mxCell>
                <mxCell id="44" value="T3" style="edgeLabel;html=1;align=center;verticalAlign=middle;resizable=0;points=[];fontSize=11;" vertex="1" connectable="0" parent="36">
                    <mxGeometry x="0.5827" y="1" relative="1" as="geometry">
                        <mxPoint as="offset"/>
                    </mxGeometry>
                </mxCell>
                <mxCell id="46" value="T5" style="edgeLabel;html=1;align=center;verticalAlign=middle;resizable=0;points=[];fontSize=11;" vertex="1" connectable="0" parent="36">
                    <mxGeometry x="0.2858" relative="1" as="geometry">
                        <mxPoint as="offset"/>
                    </mxGeometry>
                </mxCell>
                <mxCell id="48" value="T7" style="edgeLabel;html=1;align=center;verticalAlign=middle;resizable=0;points=[];fontSize=11;" vertex="1" connectable="0" parent="36">
                    <mxGeometry x="-0.0286" relative="1" as="geometry">
                        <mxPoint as="offset"/>
                    </mxGeometry>
                </mxCell>
                <mxCell id="50" value="T9" style="edgeLabel;html=1;align=center;verticalAlign=middle;resizable=0;points=[];fontSize=11;" vertex="1" connectable="0" parent="36">
                    <mxGeometry x="-0.318" relative="1" as="geometry">
                        <mxPoint as="offset"/>
                    </mxGeometry>
                </mxCell>
                <mxCell id="52" value="T11" style="edgeLabel;html=1;align=center;verticalAlign=middle;resizable=0;points=[];fontSize=11;" vertex="1" connectable="0" parent="36">
                    <mxGeometry x="-0.6151" y="-1" relative="1" as="geometry">
                        <mxPoint as="offset"/>
                    </mxGeometry>
                </mxCell>
                <mxCell id="37" value="" style="endArrow=none;html=1;fillColor=#0050ef;strokeColor=#001DBC;" edge="1" parent="56">
                    <mxGeometry width="50" height="50" relative="1" as="geometry">
                        <mxPoint x="155" y="351" as="sourcePoint"/>
                        <mxPoint x="155" y="27" as="targetPoint"/>
                    </mxGeometry>
                </mxCell>
                <mxCell id="41" value="T2" style="edgeLabel;html=1;align=center;verticalAlign=middle;resizable=0;points=[];fontSize=11;" vertex="1" connectable="0" parent="37">
                    <mxGeometry x="0.8434" y="1" relative="1" as="geometry">
                        <mxPoint y="-4" as="offset"/>
                    </mxGeometry>
                </mxCell>
                <mxCell id="45" value="T4" style="edgeLabel;html=1;align=center;verticalAlign=middle;resizable=0;points=[];fontSize=11;" vertex="1" connectable="0" parent="37">
                    <mxGeometry x="0.5757" y="1" relative="1" as="geometry">
                        <mxPoint as="offset"/>
                    </mxGeometry>
                </mxCell>
                <mxCell id="47" value="T6" style="edgeLabel;html=1;align=center;verticalAlign=middle;resizable=0;points=[];fontSize=11;" vertex="1" connectable="0" parent="37">
                    <mxGeometry x="0.284" relative="1" as="geometry">
                        <mxPoint as="offset"/>
                    </mxGeometry>
                </mxCell>
                <mxCell id="49" value="T8" style="edgeLabel;html=1;align=center;verticalAlign=middle;resizable=0;points=[];fontSize=11;" vertex="1" connectable="0" parent="37">
                    <mxGeometry x="-0.0233" relative="1" as="geometry">
                        <mxPoint as="offset"/>
                    </mxGeometry>
                </mxCell>
                <mxCell id="51" value="T10" style="edgeLabel;html=1;align=center;verticalAlign=middle;resizable=0;points=[];fontSize=11;" vertex="1" connectable="0" parent="37">
                    <mxGeometry x="-0.3127" y="2" relative="1" as="geometry">
                        <mxPoint as="offset"/>
                    </mxGeometry>
                </mxCell>
                <mxCell id="53" value="T12" style="edgeLabel;html=1;align=center;verticalAlign=middle;resizable=0;points=[];fontSize=11;" vertex="1" connectable="0" parent="37">
                    <mxGeometry x="-0.6124" relative="1" as="geometry">
                        <mxPoint as="offset"/>
                    </mxGeometry>
                </mxCell>
                <mxCell id="38" value="APK" style="text;html=1;align=center;verticalAlign=middle;resizable=0;points=[];autosize=1;strokeColor=none;fillColor=none;fontSize=11;" vertex="1" parent="56">
                    <mxGeometry width="44" height="28" as="geometry"/>
                </mxCell>
                <mxCell id="39" value="PEDAL" style="text;html=1;align=center;verticalAlign=middle;resizable=0;points=[];autosize=1;strokeColor=none;fillColor=none;fontSize=11;" vertex="1" parent="56">
                    <mxGeometry x="124" width="60" height="28" as="geometry"/>
                </mxCell>
                <mxCell id="42" value="" style="endArrow=classic;html=1;fontSize=11;" edge="1" parent="56">
                    <mxGeometry width="50" height="50" relative="1" as="geometry">
                        <mxPoint x="34" y="48" as="sourcePoint"/>
                        <mxPoint x="146" y="48" as="targetPoint"/>
                    </mxGeometry>
                </mxCell>
                <mxCell id="43" value="IG" style="edgeLabel;html=1;align=center;verticalAlign=middle;resizable=0;points=[];fontSize=11;" vertex="1" connectable="0" parent="42">
                    <mxGeometry x="-0.2637" y="1" relative="1" as="geometry">
                        <mxPoint as="offset"/>
                    </mxGeometry>
                </mxCell>
                <mxCell id="54" value="" style="endArrow=classic;html=1;fontSize=11;" edge="1" parent="56">
                    <mxGeometry width="50" height="50" relative="1" as="geometry">
                        <mxPoint x="150" y="52" as="sourcePoint"/>
                        <mxPoint x="34" y="96" as="targetPoint"/>
                    </mxGeometry>
                </mxCell>
                <mxCell id="55" value="AR" style="edgeLabel;html=1;align=center;verticalAlign=middle;resizable=0;points=[];fontSize=11;" vertex="1" connectable="0" parent="54">
                    <mxGeometry x="0.1401" relative="1" as="geometry">
                        <mxPoint as="offset"/>
                    </mxGeometry>
                </mxCell>
                <mxCell id="57" value="" style="group" vertex="1" connectable="0" parent="1">
                    <mxGeometry x="719" y="224" width="184" height="351" as="geometry"/>
                </mxCell>
                <mxCell id="58" value="" style="endArrow=none;html=1;fillColor=#60a917;strokeColor=#2D7600;" edge="1" parent="57">
                    <mxGeometry width="50" height="50" relative="1" as="geometry">
                        <mxPoint x="27" y="351" as="sourcePoint"/>
                        <mxPoint x="27" y="27" as="targetPoint"/>
                    </mxGeometry>
                </mxCell>
                <mxCell id="59" value="T1" style="edgeLabel;html=1;align=center;verticalAlign=middle;resizable=0;points=[];fontSize=11;" vertex="1" connectable="0" parent="58">
                    <mxGeometry x="0.8434" y="1" relative="1" as="geometry">
                        <mxPoint y="-4" as="offset"/>
                    </mxGeometry>
                </mxCell>
                <mxCell id="60" value="T3" style="edgeLabel;html=1;align=center;verticalAlign=middle;resizable=0;points=[];fontSize=11;" vertex="1" connectable="0" parent="58">
                    <mxGeometry x="0.5827" y="1" relative="1" as="geometry">
                        <mxPoint as="offset"/>
                    </mxGeometry>
                </mxCell>
                <mxCell id="61" value="T5" style="edgeLabel;html=1;align=center;verticalAlign=middle;resizable=0;points=[];fontSize=11;" vertex="1" connectable="0" parent="58">
                    <mxGeometry x="0.2858" relative="1" as="geometry">
                        <mxPoint as="offset"/>
                    </mxGeometry>
                </mxCell>
                <mxCell id="62" value="T7" style="edgeLabel;html=1;align=center;verticalAlign=middle;resizable=0;points=[];fontSize=11;" vertex="1" connectable="0" parent="58">
                    <mxGeometry x="-0.0286" relative="1" as="geometry">
                        <mxPoint as="offset"/>
                    </mxGeometry>
                </mxCell>
                <mxCell id="63" value="T9" style="edgeLabel;html=1;align=center;verticalAlign=middle;resizable=0;points=[];fontSize=11;" vertex="1" connectable="0" parent="58">
                    <mxGeometry x="-0.318" relative="1" as="geometry">
                        <mxPoint as="offset"/>
                    </mxGeometry>
                </mxCell>
                <mxCell id="64" value="T11" style="edgeLabel;html=1;align=center;verticalAlign=middle;resizable=0;points=[];fontSize=11;" vertex="1" connectable="0" parent="58">
                    <mxGeometry x="-0.6151" y="-1" relative="1" as="geometry">
                        <mxPoint as="offset"/>
                    </mxGeometry>
                </mxCell>
                <mxCell id="65" value="" style="endArrow=none;html=1;fillColor=#60a917;strokeColor=#2D7600;" edge="1" parent="57">
                    <mxGeometry width="50" height="50" relative="1" as="geometry">
                        <mxPoint x="155" y="351" as="sourcePoint"/>
                        <mxPoint x="155" y="27" as="targetPoint"/>
                    </mxGeometry>
                </mxCell>
                <mxCell id="66" value="T2" style="edgeLabel;html=1;align=center;verticalAlign=middle;resizable=0;points=[];fontSize=11;" vertex="1" connectable="0" parent="65">
                    <mxGeometry x="0.8434" y="1" relative="1" as="geometry">
                        <mxPoint y="-4" as="offset"/>
                    </mxGeometry>
                </mxCell>
                <mxCell id="67" value="T4" style="edgeLabel;html=1;align=center;verticalAlign=middle;resizable=0;points=[];fontSize=11;" vertex="1" connectable="0" parent="65">
                    <mxGeometry x="0.5757" y="1" relative="1" as="geometry">
                        <mxPoint as="offset"/>
                    </mxGeometry>
                </mxCell>
                <mxCell id="68" value="T6" style="edgeLabel;html=1;align=center;verticalAlign=middle;resizable=0;points=[];fontSize=11;" vertex="1" connectable="0" parent="65">
                    <mxGeometry x="0.284" relative="1" as="geometry">
                        <mxPoint as="offset"/>
                    </mxGeometry>
                </mxCell>
                <mxCell id="69" value="T8" style="edgeLabel;html=1;align=center;verticalAlign=middle;resizable=0;points=[];fontSize=11;" vertex="1" connectable="0" parent="65">
                    <mxGeometry x="-0.0233" relative="1" as="geometry">
                        <mxPoint as="offset"/>
                    </mxGeometry>
                </mxCell>
                <mxCell id="70" value="T10" style="edgeLabel;html=1;align=center;verticalAlign=middle;resizable=0;points=[];fontSize=11;" vertex="1" connectable="0" parent="65">
                    <mxGeometry x="-0.3127" y="2" relative="1" as="geometry">
                        <mxPoint as="offset"/>
                    </mxGeometry>
                </mxCell>
                <mxCell id="71" value="T12" style="edgeLabel;html=1;align=center;verticalAlign=middle;resizable=0;points=[];fontSize=11;" vertex="1" connectable="0" parent="65">
                    <mxGeometry x="-0.6124" relative="1" as="geometry">
                        <mxPoint as="offset"/>
                    </mxGeometry>
                </mxCell>
                <mxCell id="72" value="APK" style="text;html=1;align=center;verticalAlign=middle;resizable=0;points=[];autosize=1;strokeColor=none;fillColor=none;fontSize=11;" vertex="1" parent="57">
                    <mxGeometry width="44" height="28" as="geometry"/>
                </mxCell>
                <mxCell id="73" value="PEDAL" style="text;html=1;align=center;verticalAlign=middle;resizable=0;points=[];autosize=1;strokeColor=none;fillColor=none;fontSize=11;" vertex="1" parent="57">
                    <mxGeometry x="124" width="60" height="28" as="geometry"/>
                </mxCell>
                <mxCell id="74" value="" style="endArrow=classic;html=1;fontSize=11;" edge="1" parent="57">
                    <mxGeometry width="50" height="50" relative="1" as="geometry">
                        <mxPoint x="34" y="48" as="sourcePoint"/>
                        <mxPoint x="146" y="48" as="targetPoint"/>
                    </mxGeometry>
                </mxCell>
                <mxCell id="75" value="IG" style="edgeLabel;html=1;align=center;verticalAlign=middle;resizable=0;points=[];fontSize=11;" vertex="1" connectable="0" parent="74">
                    <mxGeometry x="-0.2637" y="1" relative="1" as="geometry">
                        <mxPoint as="offset"/>
                    </mxGeometry>
                </mxCell>
                <mxCell id="76" value="" style="endArrow=classic;html=1;fontSize=11;" edge="1" parent="57">
                    <mxGeometry width="50" height="50" relative="1" as="geometry">
                        <mxPoint x="150" y="52" as="sourcePoint"/>
                        <mxPoint x="34" y="96" as="targetPoint"/>
                    </mxGeometry>
                </mxCell>
                <mxCell id="77" value="AR" style="edgeLabel;html=1;align=center;verticalAlign=middle;resizable=0;points=[];fontSize=11;" vertex="1" connectable="0" parent="76">
                    <mxGeometry x="0.1401" relative="1" as="geometry">
                        <mxPoint as="offset"/>
                    </mxGeometry>
                </mxCell>
                <mxCell id="78" value="" style="group" vertex="1" connectable="0" parent="1">
                    <mxGeometry x="901" y="223" width="184" height="351" as="geometry"/>
                </mxCell>
                <mxCell id="79" value="" style="endArrow=none;html=1;fillColor=#76608a;strokeColor=#432D57;" edge="1" parent="78">
                    <mxGeometry width="50" height="50" relative="1" as="geometry">
                        <mxPoint x="27" y="351" as="sourcePoint"/>
                        <mxPoint x="27" y="27" as="targetPoint"/>
                    </mxGeometry>
                </mxCell>
                <mxCell id="80" value="T1" style="edgeLabel;html=1;align=center;verticalAlign=middle;resizable=0;points=[];fontSize=11;" vertex="1" connectable="0" parent="79">
                    <mxGeometry x="0.8434" y="1" relative="1" as="geometry">
                        <mxPoint y="-4" as="offset"/>
                    </mxGeometry>
                </mxCell>
                <mxCell id="81" value="T3" style="edgeLabel;html=1;align=center;verticalAlign=middle;resizable=0;points=[];fontSize=11;" vertex="1" connectable="0" parent="79">
                    <mxGeometry x="0.5827" y="1" relative="1" as="geometry">
                        <mxPoint as="offset"/>
                    </mxGeometry>
                </mxCell>
                <mxCell id="82" value="T5" style="edgeLabel;html=1;align=center;verticalAlign=middle;resizable=0;points=[];fontSize=11;" vertex="1" connectable="0" parent="79">
                    <mxGeometry x="0.2858" relative="1" as="geometry">
                        <mxPoint as="offset"/>
                    </mxGeometry>
                </mxCell>
                <mxCell id="83" value="T7" style="edgeLabel;html=1;align=center;verticalAlign=middle;resizable=0;points=[];fontSize=11;" vertex="1" connectable="0" parent="79">
                    <mxGeometry x="-0.0286" relative="1" as="geometry">
                        <mxPoint as="offset"/>
                    </mxGeometry>
                </mxCell>
                <mxCell id="84" value="T9" style="edgeLabel;html=1;align=center;verticalAlign=middle;resizable=0;points=[];fontSize=11;" vertex="1" connectable="0" parent="79">
                    <mxGeometry x="-0.318" relative="1" as="geometry">
                        <mxPoint as="offset"/>
                    </mxGeometry>
                </mxCell>
                <mxCell id="85" value="T11" style="edgeLabel;html=1;align=center;verticalAlign=middle;resizable=0;points=[];fontSize=11;" vertex="1" connectable="0" parent="79">
                    <mxGeometry x="-0.6151" y="-1" relative="1" as="geometry">
                        <mxPoint as="offset"/>
                    </mxGeometry>
                </mxCell>
                <mxCell id="86" value="" style="endArrow=none;html=1;fillColor=#76608a;strokeColor=#432D57;" edge="1" parent="78">
                    <mxGeometry width="50" height="50" relative="1" as="geometry">
                        <mxPoint x="155" y="351" as="sourcePoint"/>
                        <mxPoint x="155" y="27" as="targetPoint"/>
                    </mxGeometry>
                </mxCell>
                <mxCell id="87" value="T2" style="edgeLabel;html=1;align=center;verticalAlign=middle;resizable=0;points=[];fontSize=11;" vertex="1" connectable="0" parent="86">
                    <mxGeometry x="0.8434" y="1" relative="1" as="geometry">
                        <mxPoint y="-4" as="offset"/>
                    </mxGeometry>
                </mxCell>
                <mxCell id="88" value="T4" style="edgeLabel;html=1;align=center;verticalAlign=middle;resizable=0;points=[];fontSize=11;" vertex="1" connectable="0" parent="86">
                    <mxGeometry x="0.5757" y="1" relative="1" as="geometry">
                        <mxPoint as="offset"/>
                    </mxGeometry>
                </mxCell>
                <mxCell id="89" value="T6" style="edgeLabel;html=1;align=center;verticalAlign=middle;resizable=0;points=[];fontSize=11;" vertex="1" connectable="0" parent="86">
                    <mxGeometry x="0.284" relative="1" as="geometry">
                        <mxPoint as="offset"/>
                    </mxGeometry>
                </mxCell>
                <mxCell id="90" value="T8" style="edgeLabel;html=1;align=center;verticalAlign=middle;resizable=0;points=[];fontSize=11;" vertex="1" connectable="0" parent="86">
                    <mxGeometry x="-0.0233" relative="1" as="geometry">
                        <mxPoint as="offset"/>
                    </mxGeometry>
                </mxCell>
                <mxCell id="91" value="T10" style="edgeLabel;html=1;align=center;verticalAlign=middle;resizable=0;points=[];fontSize=11;" vertex="1" connectable="0" parent="86">
                    <mxGeometry x="-0.3127" y="2" relative="1" as="geometry">
                        <mxPoint as="offset"/>
                    </mxGeometry>
                </mxCell>
                <mxCell id="92" value="T12" style="edgeLabel;html=1;align=center;verticalAlign=middle;resizable=0;points=[];fontSize=11;" vertex="1" connectable="0" parent="86">
                    <mxGeometry x="-0.6124" relative="1" as="geometry">
                        <mxPoint as="offset"/>
                    </mxGeometry>
                </mxCell>
                <mxCell id="93" value="APK" style="text;html=1;align=center;verticalAlign=middle;resizable=0;points=[];autosize=1;strokeColor=none;fillColor=none;fontSize=11;" vertex="1" parent="78">
                    <mxGeometry width="44" height="28" as="geometry"/>
                </mxCell>
                <mxCell id="94" value="PEDAL" style="text;html=1;align=center;verticalAlign=middle;resizable=0;points=[];autosize=1;strokeColor=none;fillColor=none;fontSize=11;" vertex="1" parent="78">
                    <mxGeometry x="124" width="60" height="28" as="geometry"/>
                </mxCell>
                <mxCell id="95" value="" style="endArrow=classic;html=1;fontSize=11;" edge="1" parent="78">
                    <mxGeometry width="50" height="50" relative="1" as="geometry">
                        <mxPoint x="34" y="48" as="sourcePoint"/>
                        <mxPoint x="146" y="48" as="targetPoint"/>
                    </mxGeometry>
                </mxCell>
                <mxCell id="96" value="IG" style="edgeLabel;html=1;align=center;verticalAlign=middle;resizable=0;points=[];fontSize=11;" vertex="1" connectable="0" parent="95">
                    <mxGeometry x="-0.2637" y="1" relative="1" as="geometry">
                        <mxPoint as="offset"/>
                    </mxGeometry>
                </mxCell>
                <mxCell id="97" value="" style="endArrow=classic;html=1;fontSize=11;" edge="1" parent="78">
                    <mxGeometry width="50" height="50" relative="1" as="geometry">
                        <mxPoint x="150" y="52" as="sourcePoint"/>
                        <mxPoint x="34" y="96" as="targetPoint"/>
                    </mxGeometry>
                </mxCell>
                <mxCell id="98" value="AR" style="edgeLabel;html=1;align=center;verticalAlign=middle;resizable=0;points=[];fontSize=11;" vertex="1" connectable="0" parent="97">
                    <mxGeometry x="0.1401" relative="1" as="geometry">
                        <mxPoint as="offset"/>
                    </mxGeometry>
                </mxCell>
                <mxCell id="99" value="&lt;font style=&quot;font-size: 16px;&quot;&gt;a)&lt;/font&gt;" style="text;html=1;align=center;verticalAlign=middle;resizable=0;points=[];autosize=1;strokeColor=none;fillColor=none;fontSize=11;" vertex="1" parent="1">
                    <mxGeometry x="222" y="606" width="36" height="32" as="geometry"/>
                </mxCell>
                <mxCell id="100" value="&lt;font style=&quot;font-size: 16px;&quot;&gt;c)&lt;/font&gt;" style="text;html=1;align=center;verticalAlign=middle;resizable=0;points=[];autosize=1;strokeColor=none;fillColor=none;fontSize=11;" vertex="1" parent="1">
                    <mxGeometry x="793" y="606" width="36" height="32" as="geometry"/>
                </mxCell>
                <mxCell id="101" value="&lt;font style=&quot;font-size: 16px;&quot;&gt;b)&lt;/font&gt;" style="text;html=1;align=center;verticalAlign=middle;resizable=0;points=[];autosize=1;strokeColor=none;fillColor=none;fontSize=11;" vertex="1" parent="1">
                    <mxGeometry x="606" y="606" width="36" height="32" as="geometry"/>
                </mxCell>
                <mxCell id="102" value="&lt;font style=&quot;font-size: 16px;&quot;&gt;d)&lt;/font&gt;" style="text;html=1;align=center;verticalAlign=middle;resizable=0;points=[];autosize=1;strokeColor=none;fillColor=none;fontSize=11;" vertex="1" parent="1">
                    <mxGeometry x="974" y="606" width="36" height="32" as="geometry"/>
                </mxCell>
            </root>
        </mxGraphModel>
    </diagram>
</mxfile>